<?xml version="1.0" encoding="UTF-8"?>
<svg width="173" height="30" viewBox="0 0 173 30" fill="none" xmlns="http://www.w3.org/2000/svg">
<path d="M35 14.9999C35 21.6273 29.9021 27 23.6131 27C20.6921 27 18.0281 25.8406 16.0123 23.9353C19.2415 22.4032 21.4895 18.9826 21.4895 15.0086C21.4895 11.0295 19.2359 7.60535 16 6.07614C18.0175 4.16387 20.6862 3 23.6131 3C29.9021 3 35 8.37255 35 14.9999Z" fill="#F02E65"/>
<path d="M19.2294 5.43699C11.8619 -0.124843 1.2296 4.3658 0.091611 13.5205C-0.437208 17.7752 1.34945 21.9878 4.7769 24.568C12.1486 30.1249 22.7777 25.6264 23.9094 16.4709C24.4345 12.2216 22.6505 8.01569 19.2294 5.43687V5.43699ZM17.8951 7.20285C23.9059 11.7337 22.7524 21.065 15.8189 23.9994C12.6014 25.3613 8.90061 24.9049 6.11111 22.802C0.100646 18.271 1.25393 8.93971 8.18736 6.00543C11.405 4.64377 15.1057 5.10006 17.8951 7.20285Z" fill="#F02E65"/>
<path d="M48.5132 6.78534C50.1371 6.78534 51.5213 7.19529 52.6659 8.01566C53.8104 8.83614 54.5974 9.92354 55.027 11.2779V6.98388H57.0532V22.6144H55.027V18.3206C54.5974 19.6762 53.8104 20.7641 52.6659 21.5845C51.5213 22.405 50.1371 22.8151 48.5132 22.8151C47.0654 22.8151 45.7692 22.4906 44.6246 21.8419C43.4801 21.1933 42.59 20.2628 41.954 19.0505C41.3182 17.8382 41 16.4211 41 14.7991C41 13.1584 41.3182 11.732 41.954 10.5196C42.59 9.30856 43.4752 8.38353 44.6101 7.74398C45.7448 7.10465 47.0458 6.78534 48.5132 6.78534ZM49.0412 8.55913C47.2413 8.55913 45.7983 9.1172 44.7119 10.2338C43.6269 11.3503 43.0844 12.8721 43.0844 14.7991C43.0844 16.7265 43.6269 18.2484 44.7119 19.3649C45.7983 20.4812 47.2413 21.0393 49.0412 21.0393C50.1759 21.0393 51.1981 20.782 52.1071 20.2668C53.0171 19.752 53.7314 19.022 54.2498 18.0772C54.768 17.1325 55.027 16.04 55.027 14.7991C55.027 13.5585 54.768 12.4666 54.2498 11.5228C53.7314 10.5784 53.0171 9.84762 52.1071 9.33185C51.1981 8.81666 50.1759 8.55913 49.0412 8.55913ZM70.0822 6.78534C71.5496 6.78534 72.8458 7.10465 73.9707 7.74398C75.0958 8.38353 75.9764 9.30856 76.6124 10.5196C77.2482 11.732 77.5662 13.1584 77.5662 14.7991C77.5662 16.4211 77.2482 17.8382 76.6124 19.0505C75.9764 20.2628 75.0906 21.1933 73.9563 21.8419C72.8216 22.4906 71.5301 22.8151 70.0822 22.8151C68.4387 22.8151 67.0498 22.405 65.915 21.5845C64.7802 20.7641 63.9979 19.6762 63.5681 18.3206V30H61.5129V6.98388H63.5681V11.2779C63.9979 9.92354 64.7802 8.83614 65.915 8.01566C67.0498 7.19529 68.4387 6.78534 70.0822 6.78534ZM69.525 8.55913C68.3902 8.55913 67.3677 8.81666 66.4574 9.33185C65.5484 9.84762 64.8395 10.5784 64.3311 11.5228C63.8227 12.4666 63.5681 13.5585 63.5681 14.7991C63.5681 16.04 63.8227 17.1325 64.3311 18.0772C64.8395 19.022 65.5484 19.752 66.4574 20.2668C67.3677 20.782 68.3902 21.0393 69.525 21.0393C71.3443 21.0393 72.7922 20.4812 73.8688 19.3649C74.9442 18.2484 75.4818 16.7265 75.4818 14.7991C75.4818 12.8721 74.9442 11.3503 73.8688 10.2338C72.7922 9.1172 71.3443 8.55913 69.525 8.55913ZM89.832 6.78534C91.2996 6.78534 92.5958 7.10465 93.7207 7.74398C94.8459 8.38353 95.7266 9.30856 96.3625 10.5196C96.9982 11.732 97.3163 13.1584 97.3163 14.7991C97.3163 16.4211 96.9982 17.8382 96.3625 19.0505C95.7266 20.2628 94.841 21.1933 93.7062 21.8419C92.5716 22.4906 91.2802 22.8151 89.832 22.8151C88.1887 22.8151 86.7999 22.405 85.6653 21.5845C84.5303 20.7641 83.7482 19.6762 83.3185 18.3206V30H81.2631V6.98388H83.3185V11.2779C83.7482 9.92354 84.5303 8.83614 85.6653 8.01566C86.7999 7.19529 88.1887 6.78534 89.832 6.78534ZM89.2752 8.55913C88.1406 8.55913 87.1177 8.81666 86.2076 9.33185C85.2987 9.84762 84.5899 10.5784 84.0812 11.5228C83.5728 12.4666 83.3185 13.5585 83.3185 14.7991C83.3185 16.04 83.5728 17.1325 84.0812 18.0772C84.5899 19.022 85.2987 19.752 86.2076 20.2668C87.1177 20.782 88.1406 21.0393 89.2752 21.0393C91.0945 21.0393 92.5424 20.4812 93.6188 19.3649C94.6942 18.2484 95.2319 16.7265 95.2319 14.7991C95.2319 12.8721 94.6942 11.3503 93.6188 10.2338C92.5424 9.1172 91.0945 8.55913 89.2752 8.55913ZM120.059 6.75683H123.933L119.561 22.6144H114.982L111.49 11.079L107.909 22.6144H103.333L98.9889 6.75683H103.127L105.769 19.0079L109.377 6.75683H113.749L117.389 19.0079L120.059 6.75683ZM130.126 9.78979C130.732 8.77888 131.533 7.98227 132.531 7.39963C133.53 6.81837 134.645 6.52792 135.877 6.52792V10.8498H134.674C131.642 10.8498 130.126 12.2238 130.126 14.9713V22.6144H125.988V6.75683H130.126V9.78979ZM137.697 2.20356C137.697 1.55496 137.932 1.02575 138.401 0.616027C138.871 0.205497 139.487 0 140.249 0C141.013 0 141.629 0.205497 142.099 0.616027C142.569 1.02575 142.803 1.55496 142.803 2.20356C142.803 2.83349 142.569 3.35378 142.099 3.76466C141.629 4.17531 141.013 4.3808 140.249 4.3808C139.487 4.3808 138.871 4.17531 138.401 3.76466C137.932 3.35378 137.697 2.83349 137.697 2.20356ZM138.167 6.75683H142.305V22.6144H138.167V6.75683ZM153.134 19.15H154.747V22.6144H152.575C150.755 22.6144 149.361 22.1854 148.393 21.3271C147.424 20.4675 146.94 19.0365 146.94 17.0332V10.1627H144.681V6.75683H146.94V2.83407H151.078V6.75683H154.717V10.1627H151.078V17.09C151.078 17.8535 151.235 18.3882 151.548 18.6935C151.861 18.9979 152.39 19.15 153.134 19.15ZM173 14.0837C173 14.4848 172.952 14.9431 172.854 15.4579H160.939C160.997 16.8702 161.389 17.9105 162.113 18.5782C162.837 19.2459 163.737 19.5798 164.813 19.5798C165.772 19.5798 166.569 19.3508 167.203 18.8925C167.839 18.4355 168.245 17.8159 168.422 17.0332H172.794C172.58 18.1401 172.12 19.1321 171.416 20.0096C170.711 20.888 169.806 21.5752 168.702 22.0712C167.596 22.5671 166.368 22.8151 165.019 22.8151C163.434 22.8151 162.025 22.4861 160.792 21.8279C159.56 21.1695 158.602 20.2296 157.917 19.0079C157.232 17.7863 156.889 16.3453 156.889 14.6856C156.889 13.0248 157.232 11.5792 157.917 10.3493C158.602 9.1179 159.56 8.17769 160.792 7.52932C162.025 6.88061 163.434 6.5562 165.019 6.5562C166.622 6.5562 168.026 6.88061 169.23 7.52932C170.432 8.17769 171.362 9.07003 172.017 10.2054C172.672 11.3406 173 12.6334 173 14.0837ZM168.833 13.6843C168.892 12.3854 168.545 11.402 167.792 10.7346C167.038 10.0667 166.114 9.733 165.019 9.733C163.903 9.733 162.964 10.0667 162.201 10.7346C161.437 11.402 161.017 12.3854 160.939 13.6843H168.833Z" fill="#F02E65"/>
<path d="M12.3871 11.0473C12.373 11.0813 12.1916 11.7745 11.9968 12.597C11.7942 13.4193 11.4734 14.7175 11.2923 15.4853C10.9434 16.8922 10.7341 17.8165 10.7341 17.9387C10.7341 17.9725 10.9505 18 11.2152 18H11.6968L11.9127 17.0619C12.0385 16.5524 12.3177 15.3833 12.5406 14.4658C12.764 13.5483 13.0357 12.4337 13.1405 11.9849C13.2451 11.5364 13.3498 11.129 13.3707 11.0813C13.3916 11.0202 13.2729 11 12.9102 11C12.6381 11 12.4009 11.0202 12.3871 11.0473ZM8.64159 13.9899L8 14.6697L8.18856 14.8872C8.2929 15.0094 8.57926 15.3153 8.82314 15.567L9.26963 16.0288H10.5391L9.93906 15.3968C9.61107 15.0574 9.3391 14.7308 9.3391 14.6902C9.3391 14.6426 9.59025 14.337 9.89742 14.0105C10.2041 13.6778 10.4553 13.392 10.4553 13.3581C10.4553 13.3307 10.1903 13.3105 9.86958 13.3105H9.29057L8.64159 13.9899ZM13.5238 13.3513C13.5238 13.3718 13.6425 13.5006 13.7889 13.6434C14.3333 14.1735 14.7167 14.6223 14.6956 14.7103C14.682 14.7583 14.4167 15.0774 14.0959 15.4104L13.5171 16.0288H14.1656L14.8142 16.0221L15.4068 15.39C15.7351 15.0369 16 14.7239 16 14.6833C16 14.6494 15.721 14.3299 15.3721 13.9699L14.7449 13.3105H14.1377C13.7959 13.3105 13.5238 13.3307 13.5238 13.3513Z" fill="#F02E65"/>
</svg>
