<svg width="2507" height="687" viewBox="0 0 2507 687" fill="none" xmlns="http://www.w3.org/2000/svg">
<path fill-rule="evenodd" clip-rule="evenodd" d="M499.999 325.98V360.535L361.332 498.757H326.665L187.999 360.535V325.98L326.665 187.757H361.332L499.999 325.98ZM343.997 436.159C395.468 436.159 437.193 394.568 437.193 343.263C437.193 291.957 395.468 250.366 343.997 250.366C292.527 250.366 250.802 291.957 250.802 343.263C250.802 394.568 292.527 436.159 343.997 436.159Z" fill="#2A6FE1"/>
<path fill-rule="evenodd" clip-rule="evenodd" d="M1440.66 186.26V433.188L1437.03 436.819H1411.61L1407.98 433.188L1404.35 418.663H1400.72C1389.82 432.461 1372.76 440.45 1353.51 440.45C1302.67 440.45 1273.62 400.506 1273.62 346.037C1273.62 291.567 1302.67 251.623 1353.51 251.623C1371.67 251.623 1389.46 258.886 1400.72 273.411H1404.35V186.26L1407.98 182.628H1437.03L1440.66 186.26ZM1357.14 407.769C1386.19 407.769 1404.35 389.612 1404.35 346.037C1404.35 302.461 1386.19 284.305 1357.14 284.305C1328.09 284.305 1309.93 305.729 1309.93 346.037C1309.93 386.344 1328.09 407.769 1357.14 407.769ZM884.959 346.037C884.959 404.137 917.641 440.45 972.11 440.45C1026.58 440.45 1059.26 404.137 1059.26 346.037C1059.26 287.936 1026.58 251.623 972.11 251.623C917.641 251.623 884.959 287.936 884.959 346.037ZM921.272 346.037C921.272 306.092 939.429 284.305 972.11 284.305C1004.79 284.305 1022.95 306.092 1022.95 346.037C1022.95 385.981 1004.79 407.769 972.11 407.769C939.429 407.769 921.272 385.981 921.272 346.037ZM1240.84 258.886L1237.21 255.254H1208.16L1204.53 258.886V346.037C1204.53 389.612 1186.01 407.769 1160.95 407.769C1131.9 407.769 1124.64 385.981 1124.64 364.193V258.886L1121.01 255.254H1091.96L1088.33 258.886V364.193C1088.33 403.774 1106.48 440.45 1157.32 440.45C1174.75 440.45 1191.45 431.735 1200.9 418.663H1204.53L1208.16 433.188L1211.79 436.819H1237.21L1240.84 433.188V258.886ZM1618.52 385.981C1618.52 353.299 1600.37 338.774 1564.05 331.511C1527.74 324.249 1513.22 320.618 1513.22 302.461C1513.22 287.936 1527.74 284.305 1545.9 284.305C1571.32 284.305 1578.58 295.199 1578.58 306.092L1582.21 309.724H1611.26L1614.89 306.092C1614.89 269.779 1585.84 251.623 1545.9 251.623C1495.06 251.623 1476.9 277.042 1476.9 302.461C1476.9 335.143 1498.69 349.668 1535 356.931C1571.32 364.193 1582.21 367.824 1582.21 385.981C1582.21 400.506 1571.32 407.769 1545.9 407.769C1520.48 407.769 1509.58 396.875 1509.58 378.718L1505.95 375.087H1476.9L1473.27 378.718C1473.27 418.663 1498.69 440.45 1545.9 440.45C1596.74 440.45 1618.52 415.031 1618.52 385.981ZM1843.65 251.623C1894.49 251.623 1905.38 284.305 1905.38 324.249V433.188L1901.75 436.819H1872.7L1869.07 433.188V324.249C1869.07 302.461 1865.44 284.305 1836.39 284.305C1810.97 284.305 1796.44 302.461 1796.44 331.511V433.188L1792.81 436.819H1763.76L1760.13 433.188V324.249C1760.13 302.461 1756.5 284.305 1727.45 284.305C1709.29 284.305 1687.5 295.199 1687.5 331.511V433.188L1683.87 436.819H1654.82L1651.19 433.188V258.886L1654.82 255.254H1680.24L1683.87 258.886L1687.5 273.411H1691.13C1698.4 262.517 1712.92 251.623 1738.34 251.623C1767.39 251.623 1778.29 266.148 1785.55 277.042H1789.18C1800.07 262.517 1818.23 251.623 1843.65 251.623ZM1981.48 222.573V193.522L1977.85 189.891H1948.8L1945.17 193.522V222.573L1948.8 226.204H1977.85L1981.48 222.573ZM1981.48 258.886L1977.85 255.254H1948.8L1945.17 258.886V433.188L1948.8 436.819H1977.85L1981.48 433.188V258.886ZM2126.63 407.769V433.188L2123 436.819H2093.95C2068.53 436.819 2043.11 422.294 2043.11 389.612V291.567L2039.48 287.936H2014.06L2010.43 284.305V258.886L2014.06 255.254H2039.48L2043.11 251.623V218.941L2046.75 215.31H2075.8L2079.43 218.941V251.623L2083.06 255.254H2123L2126.63 258.886V284.305L2123 287.936H2083.06L2079.43 291.567V389.612C2079.43 400.506 2086.69 404.137 2093.95 404.137H2123L2126.63 407.769ZM2319.05 433.188V327.88C2319.05 288.299 2304.53 251.623 2250.06 251.623C2230.81 251.623 2213.38 259.612 2202.85 273.411H2199.22V186.26L2195.59 182.628H2166.54L2162.91 186.26V433.188L2166.54 436.819H2195.59L2199.22 433.188V342.405C2199.22 298.83 2217.37 284.305 2246.42 284.305C2275.48 284.305 2282.74 306.092 2282.74 327.88V433.188L2286.37 436.819H2315.42L2319.05 433.188ZM631.176 345.959C631.176 305.983 649.347 284.178 682.055 284.178C711.129 284.178 722.031 298.715 725.665 313.252L729.3 316.886H758.373L762.007 313.252C758.373 280.544 732.934 251.47 682.055 251.47C627.542 251.47 594.834 287.812 594.834 345.959C594.834 404.107 627.542 440.449 682.055 440.449C732.934 440.449 758.373 411.375 762.007 378.667L758.373 375.033H729.3L725.665 378.667C722.031 393.204 711.129 407.741 682.055 407.741C649.347 407.741 631.176 385.936 631.176 345.959ZM868.926 408.456V433.875L865.294 437.507H846.064C820.645 437.507 795.226 422.982 795.226 390.3L795.224 186.26L798.856 182.628H827.906L831.537 186.26L831.539 390.3C831.539 401.194 838.802 404.825 846.064 404.825H865.294L868.926 408.456Z" fill="#092F45"/>
</svg>
