<svg viewBox="0 0 881.86 282.08" xmlns="http://www.w3.org/2000/svg"><path d="m424.49 84.36v81.64h-16.23v-6.82c-4.25 5.17-10.46 7.7-18.3 7.7-16.55 0-29.29-11.88-29.29-30.47s12.74-30.47 29.29-30.47c7.19 0 13.29 2.31 17.54 7.15v-28.73zm-16.67 52c0-10.23-6.53-16.39-14.92-16.39s-15 6.16-15 16.39 6.53 16.39 15 16.39 14.92-6.13 14.92-16.36z" fill="#205160"/><path d="m497 141.23h-44.31c1.63 7.37 7.84 11.88 16.77 11.88a19.75 19.75 0 0 0 14.7-5.72l9 9.9c-5.45 6.27-13.61 9.57-24.18 9.57-20.25 0-33.43-12.87-33.43-30.47s13.4-30.47 31.26-30.47c17.2 0 30.49 11.66 30.49 30.69.04 1.32-.18 3.19-.3 4.62zm-44.54-10h28.86c-1.2-7.48-6.75-12.32-14.38-12.32s-13.27 4.72-14.47 12.31z" fill="#205160"/><path d="m565.51 106.8-24.72 59.2h-17.53l-24.62-59.2h17.54l16.22 40.26 16.77-40.26z" fill="#205160"/><path d="m566.27 136.39c0-17.82 13.61-30.47 32.23-30.47s32.13 12.65 32.13 30.47-13.5 30.47-32.13 30.47-32.23-12.65-32.23-30.47zm47.15 0c0-10.23-6.42-16.39-14.92-16.39s-15 6.16-15 16.39 6.53 16.39 15 16.39 14.92-6.16 14.92-16.39z" fill="#205160"/><path d="m734.2 106.8-21.2 59.2h-16.38l-13.17-36.74-13.62 36.74h-16.33l-21.13-59.2h16l13.83 40 14.38-40h14.42l13.94 40 14.27-40z" fill="#205160"/><path d="m741.93 84.36h17v81.64h-17z" fill="#205160"/><path d="m772.42 160.48a5.79 5.79 0 0 1 5.77-5.94 5.88 5.88 0 0 1 5.88 5.94 6 6 0 0 1 -5.88 6.05 5.89 5.89 0 0 1 -5.77-6.05z" fill="#205160"/><path d="m798.55 89.86a5.61 5.61 0 0 1 5.66-5.5 5.52 5.52 0 0 1 5.67 5.39 5.67 5.67 0 0 1 -11.33.11zm1.74 18.26h7.71v57.88h-7.74z" fill="#205160"/><path d="m823.6 137.05c0-17.16 12.41-29.37 29.19-29.37s29.07 12.21 29.07 29.37-12.3 29.48-29.07 29.48-29.19-12.32-29.19-29.48zm50.42 0c0-13.53-9-22.55-21.23-22.55s-21.35 9-21.35 22.55 9.15 22.55 21.35 22.55 21.21-9.02 21.21-22.55z" fill="#205160"/><path d="m207.77 234.32a130.44 130.44 0 0 0 19.3-17.68c1.73-1.94.63-6.56 2.25-8.6 2-2.56 6.73-2.56 8.56-5.27a130.06 130.06 0 1 0 -185.55 31.55z" fill="#ffcc3e"/><path d="m86.52 63.57c15.6 0 28.74-6 33.1 8.15a15.74 15.74 0 0 1 19.09 0c4.38-14.16 17.59-14.44 33.17-14.44 10.84 0 20.53-5 26.9 2.76v-7.3h-.05v-29.66a107.52 107.52 0 0 1 -64.86 25.3v4.44a3.91 3.91 0 1 1 -7.81 0v-4.4a107.5 107.5 0 0 1 -66.52-25.32v36.9c6.37-7.81 16.14 3.57 26.98 3.57z" fill="#45b3dd"/><path d="m156.71 147.53v65.56h28.29a13.84 13.84 0 0 0 13.82-13.82v-37a40.23 40.23 0 0 1 16.18-32.22h-40.8a17.51 17.51 0 0 0 -17.49 17.48z" fill="#45b3dd"/><path d="m200.57 101.41c-10.92-19.51-16.78 0-28.69 0-8.7 0-7.3 0-13.4-5.27l-28.11 35.92-22.85-29.93c-6.12 5.39-11.41-.22-20.19-.22-11.91 0-21.69 1.29-29.58-.5a40.37 40.37 0 0 1 -15 20.82h41.37a25.33 25.33 0 0 1 25.3 25.3v53.21h39.48v-53.21a25.33 25.33 0 0 1 25.3-25.3h41.34a40.37 40.37 0 0 1 -14.97-20.82z" fill="#469bc3"/><path d="m84.12 130.05h-40.77a40.23 40.23 0 0 1 16.19 32.26v37a13.84 13.84 0 0 0 13.82 13.82h28.25v-65.6a17.51 17.51 0 0 0 -17.49-17.48z" fill="#45b3dd"/><path d="m59.54 23.1 18.18 37.71-18.18-.82z" fill="#fff"/><path d="m198.78 23.1-15.9 32.99 15.9 3.9z" fill="#fff"/><path d="m49.32 136.66h32.95a19.33 19.33 0 0 1 19.34 19.34v2h3v-22.42s-12.9-9.79-14.21-10-30.22-1.08-33.21-.6-19.35 1.55-19.35 1.55l-1.79.6" fill="#fff"/><path d="m209 136.66h-33a19.33 19.33 0 0 0 -19.3 19.34v2h-3v-22.42s12.9-9.79 14.21-10 30.22-1.08 33.21-.6 19.35 1.55 19.35 1.55l1.79.6" fill="#fff"/><path d="m232.05 71.72a14.81 14.81 0 0 1 -13.65 13.65 14.79 14.79 0 0 1 13.65 13.63 14.81 14.81 0 0 1 13.65-13.63 14.83 14.83 0 0 1 -13.65-13.65z" fill="#fff"/><path d="m26.51 78a19.7 19.7 0 0 1 -18.16 18.14 19.68 19.68 0 0 1 18.16 18.16 19.7 19.7 0 0 1 18.16-18.16 19.73 19.73 0 0 1 -18.16-18.14z" fill="#fff"/><path d="m230 159.31a14.21 14.21 0 0 1 -13.09 13.09 14.21 14.21 0 0 1 13.09 13.09 14.21 14.21 0 0 1 13.09-13.09 14.21 14.21 0 0 1 -13.09-13.09z" fill="#fff"/><path d="m129.16 142.28a14.21 14.21 0 0 1 -13.09 13.08 14.21 14.21 0 0 1 13.09 13.09 14.21 14.21 0 0 1 13.09-13.09 14.21 14.21 0 0 1 -13.09-13.08z" fill="#fff"/><path d="m130.09 76.33a7.94 7.94 0 0 0 -.85 0 8 8 0 0 0 -6.78 3.67v14.08a14 14 0 0 1 -5.23 10.92l12.86 14.78z" fill="#ffa840"/><path d="m207.39 238h-13.72v-7.73h13.72a13.45 13.45 0 0 0 13.43-13.43h7.73a21.18 21.18 0 0 1 -21.16 21.16z" fill="#205160"/><path d="m228.55 216.81h-7.73a21.19 21.19 0 0 1 21.18-21.16h13.7v7.74h-13.7a13.43 13.43 0 0 0 -13.45 13.42z" fill="#205160"/><path d="m264.23 212.92a13.4 13.4 0 1 1 13.4-13.4 13.41 13.41 0 0 1 -13.4 13.4zm0-19.06a5.67 5.67 0 1 0 5.66 5.66 5.67 5.67 0 0 0 -5.66-5.66z" fill="#205160"/><path d="m180.18 251.39h-7.73a13.44 13.44 0 0 0 -13.45-13.39h-13.71v-7.73h13.71a21.18 21.18 0 0 1 21.18 21.12z" fill="#205160"/><path d="m207.33 272.55h-13.73a21.18 21.18 0 0 1 -21.15-21.16h7.73a13.44 13.44 0 0 0 13.42 13.43h13.73z" fill="#205160"/><path d="m216.86 282.08a13.4 13.4 0 1 1 13.4-13.4 13.41 13.41 0 0 1 -13.4 13.4zm0-19.06a5.67 5.67 0 1 0 5.67 5.66 5.67 5.67 0 0 0 -5.67-5.68z" fill="#205160"/><path d="m294.23 246.61a13.4 13.4 0 1 1 13.4-13.39 13.41 13.41 0 0 1 -13.4 13.39zm0-19.06a5.67 5.67 0 1 0 5.67 5.67 5.67 5.67 0 0 0 -5.67-5.67z" fill="#205160"/><path d="m179.34 230.24h105.35v7.73h-105.35z" fill="#205160"/><g fill="none"><path d="m137.24 84.33a8.05 8.05 0 0 0 -7.19-8v43.47l12.09-15.46a14 14 0 0 1 -4.46-10.26v-6.42a32.92 32.92 0 0 1 -.42-3.33z"/><path d="m109.42 208.55h39.48v21.73h-39.48z"/><path d="m84.12 130.05h-40.77a40.23 40.23 0 0 1 16.19 32.26v37a13.84 13.84 0 0 0 13.82 13.82h28.25v-65.6a17.51 17.51 0 0 0 -17.49-17.48z"/><path d="m137.68 71v-7a14.12 14.12 0 0 1 14.1-14.1h46.95v-26.82a107.52 107.52 0 0 1 -64.86 25.3v4.44a3.91 3.91 0 1 1 -7.81 0v-4.4a107.5 107.5 0 0 1 -66.52-25.32v26.72h48.78a14.12 14.12 0 0 1 14.1 14.1v6.08a15.65 15.65 0 0 1 15.26.94z"/><path d="m156.71 147.53v65.56h28.29a13.84 13.84 0 0 0 13.82-13.82v-37a40.23 40.23 0 0 1 16.18-32.22h-40.8a17.51 17.51 0 0 0 -17.49 17.48z"/><path d="m215.54 122.23a40.59 40.59 0 0 1 -12.17-14h-51.59a14 14 0 0 1 -2.53-.24l-18.88 24.12-20.85-23.94c-.4 0-.8.06-1.2.06h-51.84a14.36 14.36 0 0 1 -1.48-.13 40.6 40.6 0 0 1 -12.22 14.13h41.34a25.33 25.33 0 0 1 25.3 25.3v53.21h39.48v-53.21a25.33 25.33 0 0 1 25.3-25.3z"/><path d="m56.48 100.44h51.84a6.36 6.36 0 0 0 6.36-6.36v-30.16a6.36 6.36 0 0 0 -6.36-6.36h-51.84a6.39 6.39 0 0 0 -6.37 6.36v30.16a6.37 6.37 0 0 0 6.37 6.36z"/><path d="m84.12 130.05h-40.77a40.23 40.23 0 0 1 16.19 32.26v37a13.84 13.84 0 0 0 13.82 13.82h28.25v-65.6a17.51 17.51 0 0 0 -17.49-17.48z"/><path d="m109.42 208.55h39.48v21.73h-39.48z"/><path d="m156.71 147.53v65.56h28.29a13.84 13.84 0 0 0 13.82-13.82v-37a40.23 40.23 0 0 1 16.18-32.22h-40.8a17.51 17.51 0 0 0 -17.49 17.48z"/><path d="m193 57.56h-41.22a6.37 6.37 0 0 0 -6.37 6.36v30.16a6.37 6.37 0 0 0 6.37 6.36h51.84a6.39 6.39 0 0 0 6.38-6.36v-30.16a6.37 6.37 0 0 0 -6.36-6.36z"/><path d="m137.68 71v-7a14.12 14.12 0 0 1 14.1-14.1h46.95v-26.82a107.52 107.52 0 0 1 -64.86 25.3v4.44a3.91 3.91 0 1 1 -7.81 0v-4.4a107.5 107.5 0 0 1 -66.52-25.32v26.72h48.78a14.12 14.12 0 0 1 14.1 14.1v6.08a15.65 15.65 0 0 1 15.26.94z"/><path d="m215.54 122.23a40.59 40.59 0 0 1 -12.17-14h-51.59a14 14 0 0 1 -2.53-.24l-18.88 24.12-20.85-23.94c-.4 0-.8.06-1.2.06h-51.84a14.36 14.36 0 0 1 -1.48-.13 40.6 40.6 0 0 1 -12.22 14.13h41.34a25.33 25.33 0 0 1 25.3 25.3v53.21h39.48v-53.21a25.33 25.33 0 0 1 25.3-25.3z"/><path d="m142.14 104.34a14 14 0 0 1 -4.46-10.26v-6.42a32.92 32.92 0 0 1 -.42-3.33 8 8 0 0 0 -14.84-4.33v14.08a14.06 14.06 0 0 1 -5.24 10.92l12.87 14.78z"/></g><path d="m149.25 107.94a14.12 14.12 0 0 1 -7.11-3.6l-12.09 15.46-12.87-14.8a14 14 0 0 1 -7.66 3.1l20.85 23.94z" fill="#205160"/><path d="m129.2 76.29a8 8 0 0 1 8 8 32.92 32.92 0 0 0 .42 3.33v-16.62a15.65 15.65 0 0 0 -15.2-1v10a8 8 0 0 1 6.78-3.71z" fill="#205160"/><path d="m185 220.9a21.62 21.62 0 0 0 21.63-21.63v-37a32.51 32.51 0 0 1 29.02-32.27 3.88 3.88 0 0 0 3.41-3.88c0-.07 0-.14 0-.21s0-.14 0-.21a3.86 3.86 0 0 0 -3.41-3.87 32.53 32.53 0 0 1 -24.56-15.83 14.08 14.08 0 0 0 6.62-11.93v-30.15a14.11 14.11 0 0 0 -11.12-13.77v-31.58h-.05v-4.39a3.9 3.9 0 0 0 -6.64-2.79 99.69 99.69 0 0 1 -66 29.17v-12.26a4.06 4.06 0 0 0 -3.69-4.13 3.92 3.92 0 0 0 -4.12 3.91v12.52a99.66 99.66 0 0 1 -67.71-29.18 3.91 3.91 0 0 0 -6.68 2.76v35.14 1.34a14.12 14.12 0 0 0 -9.35 13.26v30.16a14.06 14.06 0 0 0 5.36 11 32.53 32.53 0 0 1 -25.07 16.73 3.86 3.86 0 0 0 -3.41 3.87v.21s0 .14 0 .21a3.88 3.88 0 0 0 3.44 3.9 32.51 32.51 0 0 1 29.06 32.29v37a21.62 21.62 0 0 0 21.63 21.61h28.25v9.38h-95.36a3.91 3.91 0 0 0 0 7.82h228.68a4.05 4.05 0 0 0 4.12-3.7 3.91 3.91 0 0 0 -3.9-4.12h-78.44v-9.38zm13.82-58.59v37a13.84 13.84 0 0 1 -13.82 13.78h-28.29v-65.56a17.51 17.51 0 0 1 17.49-17.48h40.8a40.23 40.23 0 0 0 -16.22 32.26zm4.84-104.75a6.37 6.37 0 0 1 6.34 6.36v30.16a6.39 6.39 0 0 1 -6.36 6.36h-51.86a6.37 6.37 0 0 1 -6.37-6.36v-30.16a6.37 6.37 0 0 1 6.37-6.36h51.84zm-153.55 6.36a6.39 6.39 0 0 1 6.37-6.36h51.84a6.36 6.36 0 0 1 6.36 6.36v30.16a6.36 6.36 0 0 1 -6.36 6.36h-51.84a6.37 6.37 0 0 1 -6.37-6.36zm51.5 149.17h-28.25a13.84 13.84 0 0 1 -13.82-13.82v-37a40.23 40.23 0 0 0 -16.19-32.26h40.77a17.51 17.51 0 0 1 17.49 17.48zm47.29 17.19h-39.48v-21.73h39.48zm0-82.75v53.21h-39.48v-53.21a25.33 25.33 0 0 0 -25.3-25.3h-41.34a40.6 40.6 0 0 0 12.22-14.13 14.36 14.36 0 0 0 1.48.08h51.84c.4 0 .8 0 1.2-.06a14.15 14.15 0 0 0 12.9-14v-30.2a14.12 14.12 0 0 0 -14.1-14.1h-48.78v-26.72a107.5 107.5 0 0 0 66.52 25.32v4.4a3.91 3.91 0 1 0 7.81 0v-4.44a107.52 107.52 0 0 0 64.86-25.3v26.74h-46.95a14.12 14.12 0 0 0 -14.1 14.1v30.16a14.17 14.17 0 0 0 14.1 14.1h51.59a40.59 40.59 0 0 0 12.17 14h-41.34a25.33 25.33 0 0 0 -25.3 25.35z" fill="#205160"/><path d="m193 57.56h-41.22a6.37 6.37 0 0 0 -6.37 6.36v30.16a6.37 6.37 0 0 0 6.37 6.36h51.84a6.39 6.39 0 0 0 6.38-6.36v-30.16a6.37 6.37 0 0 0 -6.36-6.36zm-15.3 37.44a15.84 15.84 0 0 1 -6.64-1.45 5.42 5.42 0 1 0 -7.42-6.86 16 16 0 0 1 14.06-23.69c.41 0 .81 0 1.21.06a8.93 8.93 0 0 0 14 10.86 16 16 0 0 1 -15.21 21.08z" fill="#fff"/><path d="m186.64 76.44a8.93 8.93 0 0 1 -7.73-13.44c-.4 0-.8-.06-1.21-.06a16 16 0 0 0 -14.06 23.77 5.42 5.42 0 1 1 7.42 6.86 15.84 15.84 0 0 0 6.64 1.43 16 16 0 0 0 15.19-21.16 8.91 8.91 0 0 1 -6.25 2.6z" fill="#205160"/><path d="m56.48 100.44h51.84a6.36 6.36 0 0 0 6.36-6.36v-30.16a6.36 6.36 0 0 0 -6.36-6.36h-51.84a6.39 6.39 0 0 0 -6.37 6.36v30.16a6.37 6.37 0 0 0 6.37 6.36zm25.92-37.44c.41 0 .81 0 1.21.06a8.93 8.93 0 0 0 14 10.86 16 16 0 0 1 -15.21 21.08 15.87 15.87 0 0 1 -6.64-1.45 5.42 5.42 0 1 0 -7.42-6.86 16 16 0 0 1 14.06-23.69z" fill="#fff"/><path d="m72.42 83.38a5.42 5.42 0 0 1 3.34 10.21 15.87 15.87 0 0 0 6.64 1.41 16 16 0 0 0 15.19-21.12 8.93 8.93 0 0 1 -13.98-10.88c-.4 0-.8-.06-1.21-.06a16 16 0 0 0 -14.06 23.79 5.4 5.4 0 0 1 4.08-3.35z" fill="#205160"/></svg>