<svg xmlns="http://www.w3.org/2000/svg" viewBox="0 0 36 36"><path fill="#EEE" d="M36 27a4 4 0 0 1-4 4H4a4 4 0 0 1-4-4V9a4 4 0 0 1 4-4h28a4 4 0 0 1 4 4z"/><path fill="#3E9A00" d="M0 27a4 4 0 0 0 4 4h28a4 4 0 0 0 4-4v-9H0z"/><path fill="#DD2E44" d="M31.719 12.812c.031-1.125.081-1.993.081-2.087s-.956 1.087-1.581 1.743a94 94 0 0 1-1.791 1.794c.713.165 1.572-.043 1.572-.043l-.406.875s-.531-.375-1.469-.375-1.594.594-1.781 1.25c-.188.656.688 1.469 1.344 1.5s1.375-.219 1.375-.219c-.938 1.438-2.906.438-3.906.375s-2.086-.005-2.086-.005c.875-1.125 2.242-.933 2.367-.933s-.822-1.436-.061-2.409c.659-.842 2.092-1.466 2.092-1.466s-1-.312-.938-.938 2.241-2.412 2.241-2.412-5.212 2.494-5.443 1.6c-.282-1.09.329-2.055.329-2.055-1.938.812-5.846 3.68-6.565 4.367-.719.688-.562 1.812-.562 2.344s-.438.906-.844 1.125-1.687.345-1.687.345-.223-.338-.067-.682.723-.1.723-.1c-.062-.625-.525-.821-.781-.844-.153-.014-.168-.625.082-.657.25-.031.949.375.949.375s.047-.736-.377-.869c-.283-.089-.65-.44-.494-.722s1.043.094 1.043.094c.102-.878-.91-.911-.91-1.161s.832-.124.832-.124c-.094-.658-.869-.807-.869-.807s-.034-.049-.159-.205-.171-.793.11-.886c.281-.094.839-.526.839-.526l-.361-.032.064-.949c-.156.188-.938.531-1.375.562s-.728.418-.728.418c-.438.094-2.053-.168-2.647-.012s-.53.6-.53.6-.72.025-1.595.15-1.503.849-1.425.901c.118.078.865-.078 1.428-.109.435-.024.811.255.833.432-.013.155.037.156.069.211.031.055.235.008.235.008l.173.165.078-.235.212.141-.03-.276.258.175-.031-.298.282.204.023-.302c.969-.016 1.052.392 1.052.392-1.469.406-4.75.25-4.75.25l.71-.332c-.875.031-2.585-.981-2.585-.981s.469 1.125.875 1.594 1.281.844 1.281.844l-.25-.562s1.75.156 2.25.156c.073 0 .167-.002.271-.006-.011.382.339.865.339.865-.203.328.109.703.109.703s.094-.141.146-.312c.053-.172.239-.63.239-.63l.287.395c.117-.561.561-.88 1.014-1.002.083.195.19.424.19.424-.657.241-.453.984-.453.984-.516.297-.438.906-.438.906s-.25.094-.422.438 0 .562 0 .562-.312.172-.416.516 0 .766 0 .766-.365.031-.318.734.438.922.438.922c-.391.047-.391.469-.391.469s-.062-.078-.188-.031c-.125.047-.197.137-.197.137s-.15-.173-.275-.251-.404.036-.404.036-.109-.314-.343-.423-.406-.094-.406-.094c.078-.141-.001-.377-.172-.531-.138-.125-.406-.166-.406-.166s.038-.48-.009-.855-.303-.667-.397-.87.109-.375.328-.531c.188-.141.312-.153.375-.387C7 15.722 7 15.5 7 15.5s-.031-.109.016-.422c.047-.312-.312-.5-.312-.5s.078.266 0 .469-.25.328-.25.328c-.125-.062-.188.141-.188.141l.078-.328c.094-.375-.078-.359-.312-.906s-.953-.359-.953-.359c.438.109.641.688.453.875s-.219.719-.219.719c-.297-.453-.484-.453-.484-.453s-.188-.203-.469-.359-.484 0-.484 0c.406.109.406.562.406.562-.25.172.094.516.094.516s.016.375.125.531.484.328.484.328-.125 1.531-.156 1.656-.173.218-.282.302-.188.4-.391.572.031.297.031.297 0 .281-.203.391-.484.156-.484.156.281.172.578.109.484-.281.484-.281c.219-.016.344-.297.344-.484s.125-.297.25-.484.172-.406.172-.406c-.016.624.969 2.03 1.344 2.28s.719.656 1.141 1.312.578 1.828.578 1.828c.719-.531.641-1.359.641-1.359s.453-.078.859-.125.891 0 .891 0c-.312.438.016.547.016.547s-.344.031-.469.219.078.562.078.562c-.688.234-.488.875-.488.875s-.436.85-1.233.944-1.107-.366-1.388-.413-.328.047-.328.047c-.172-.109-.141-.281-.531-.281-.391 0-.422.562-.422.562s.203-.219.391-.203.281.188.281.188c-.125.109.016.266.016.266l-.156.234s-.198-.106-.641 0c-.369.088-.408.485-.408.485s.144-.081.363-.128.575.034.575.034l.25.156-.056.218c-.609 0-.6.782-.6.782s.152-.226.324-.335.488-.078.488-.078c.344.384.997.139 1.356-.142s.581-.195.769-.133.487.014.659-.142.435-.218.654-.03.453.375.875.438c.422.062.438-.219.656-.25s.5.25.5.25c.109-.672-.672-.688-.672-.688.016-.109-.242-.23-.554-.183s-.618-.164-.618-.164c.141-.688.657-1.45 1.063-1.747s.859-.891 1.094-1.203q.08-.105.167-.19c.03.218.062.409.068.502.016.25.516 1.047.516 1.047s.125-.375.234-.609.234-.625.234-.625c.266-.078.656-.422.656-.422s.359.109.781-.016.891-.594.891-.594c.281.141.734-.047.734-.047s-.172.328.047.703.797.609.797.609.062.359.484.484.812.047.812.047c-.016.281.375.359.375.359-.422.094-.344.531-.344.531-.484-.062-.578.406-.578.406-.297-.047-.641.031-.844.078s-.97-.124-1.095-.202-.495-.573-.745-.651-.269.119-.269.119-.219-.125-.562-.062c-.344.062-.375.484-.375.484s.203-.156.391-.188c.188-.031.312.172.312.172-.016.109.062.234.219.281.156.047.516.047.703.203.188.156.297.359.297.359s-.328-.016-.547-.016-.5-.203-.688-.25-.422.109-.422.109-.25-.125-.562.094-.281.547-.281.547.172-.203.312-.266c.141-.062.297.016.297.016s-.016.172.108.203.407.266.407.266c-.688.156-.297.672-.297.672s.141-.203.328-.281a.4.4 0 0 1 .344.016c.062.156.293.039.496-.102s.723-.253 1.161-.29c.364-.031.609.048.734.064s.405-.119.639-.103.66.44 1.067.518.341-.149.591-.149.594.328.594.328-.094-.375-.234-.547-.589-.209-.589-.209c-.188-.297-.457-.201-.674-.18-.171.016-.338-.09-.338-.09s.774-.177 1.828-.895c1.055-.719 1.351-1.531 1.351-1.531.266.219 1.212.466 1.212.466.047-.672-.458-1.16-1.02-1.106-.249.024-.59-.275-.965-.337s-.525-.351-.572-.648.125-.609.375-.766c.25-.156.453-.469.453-.469.203.312.647.319.647.319.203.516 1.144.512 1.144.512.312.5 1.323.16 1.323.16.359.438 1.105.15 1.105.15.125.281.703.156.703.156 0 .203.391.453.391.453-.096.417.172.953.172.953-.203.25-.078.688-.078.688s-.281.109-.328.315.109.435.109.435-.065.182-.534.479-.817-.016-1.145-.157-.743-.681-.946-.744c-.203-.06-.203.127-.203.127s-.145-.064-.373-.005c-.321.083-.455.49-.455.49s.182-.109.401-.14.318.093.318.093-.094.203.094.219.422.172.422.172-.344-.016-.594 0c-.136.009-.195.111-.223.206-.048.013-.081.01-.136.029-.719.25-.578.719-.578.719.344-.469.719-.281.719-.281.004.057.3.154.606-.003.159-.082.623-.054.776.063.038.028-.156.104-.367.128-.329.037-.359.297-.359.297-.688.188-.656.734-.656.734s.281-.125.531-.24.554.076.773-.143.486-.376.808-.416c.354-.043.45.189.825.204.156.006.384-.111.728-.236s.679.017.96.173.375.188.688.094.688.219.719.312c.031.094-.066-.373-.316-.591-.25-.219-.711-.395-1.028-.471-.182-.044-.332-.682-.175-.788.114-.076.269-1.275.363-2.087s-.35-1.504-.35-1.504.287.129.506.316c.219.188.684.397.903.304s-.325-.663-1.013-1.069-2.297-1.297-2.297-1.297c3.094-.156 4.108-1.741 4.358-2.678s-.17-1.572-.17-1.572l.411-1.275c.281.5 1.371.775 1.371.775s-.502-1.375-.471-2.501"/><path fill="#FFF" d="M10.047 10.812s.247-.047.482 0 .459.118.459.118-.153.412-.541.365c-.388-.048-.4-.483-.4-.483"/><path d="M10.529 10.812a1.3 1.3 0 0 0-.275-.019c0 .007-.008.011-.008.019 0 .162.132.294.294.294.137 0 .234-.102.267-.228a4 4 0 0 0-.278-.066"/></svg>