<svg xmlns="http://www.w3.org/2000/svg" id="Layer_2" data-name="Layer 2" viewBox="0 0 809.71 363.16"><defs><style>.cls-1{fill:#4d4d4e}.cls-2{fill-rule:evenodd}.cls-2,.cls-3{fill:#0580c3}</style></defs><g id="Layer_1-2" data-name="Layer 1"><g id="International_logo" data-name="International logo"><g id="International_logo-2" data-name="International logo"><g><path d="M79.14,271.86c-14.64,0-27.95-2.94-39.93-8.81-11.99-5.87-21.52-14.76-28.59-26.66-7.08-11.9-10.62-26.78-10.62-44.64,0-13.19,2.09-24.89,6.27-35.1,4.18-10.22,9.89-18.86,17.13-25.94,7.24-7.08,15.56-12.42,24.97-16.04,9.41-3.62,19.34-5.43,29.8-5.43,11.58,0,21.63,2.05,30.16,6.15,8.52,4.1,15.52,8.97,20.99,14.6l-21.72,26.54c-3.86-3.38-7.92-6.15-12.18-8.33-4.26-2.17-9.53-3.25-15.81-3.25-10.62,0-19.46,3.98-26.54,11.94-7.08,7.96-10.62,19.11-10.62,33.42s3.33,25.94,10.01,33.9c6.67,7.96,17.01,11.94,31,11.94,2.25,0,4.46-.24,6.64-.72,2.17-.48,3.98-1.21,5.43-2.17v-21.71h-23.16v-33.78h59.84v74.8c-5.47,5.31-12.91,9.85-22.32,13.63-9.41,3.78-19.66,5.67-30.76,5.67Z" class="cls-3"/><path d="M209.2,271.86c-10.3,0-19.99-2.5-29.08-7.48-9.09-4.98-16.49-12.19-22.2-21.6-5.71-9.41-8.56-20.79-8.56-34.14s2.85-24.73,8.56-34.14c5.71-9.41,13.11-16.61,22.2-21.6,9.09-4.98,18.78-7.48,29.08-7.48s19.99,2.5,29.07,7.48c9.09,4.99,16.49,12.19,22.2,21.6,5.71,9.41,8.57,20.79,8.57,34.14s-2.86,24.73-8.57,34.14c-5.71,9.41-13.11,16.61-22.2,21.6-9.09,4.98-18.78,7.48-29.07,7.48ZM209.2,238.56c6.27,0,10.73-2.69,13.39-8.08,2.65-5.39,3.98-12.67,3.98-21.83s-1.33-16.45-3.98-21.84c-2.65-5.39-7.12-8.08-13.39-8.08s-10.74,2.7-13.39,8.08c-2.65,5.39-3.98,12.67-3.98,21.84s1.33,16.45,3.98,21.83c2.65,5.39,7.12,8.08,13.39,8.08Z" class="cls-3"/><path d="M340.7,271.86c-10.3,0-19.99-2.5-29.08-7.48-9.09-4.98-16.49-12.19-22.2-21.6-5.71-9.41-8.56-20.79-8.56-34.14s2.85-24.73,8.56-34.14c5.71-9.41,13.11-16.61,22.2-21.6,9.09-4.98,18.78-7.48,29.08-7.48s19.99,2.5,29.07,7.48c9.09,4.99,16.49,12.19,22.2,21.6,5.71,9.41,8.57,20.79,8.57,34.14s-2.86,24.73-8.57,34.14c-5.71,9.41-13.11,16.61-22.2,21.6-9.09,4.98-18.78,7.48-29.07,7.48ZM340.7,238.56c6.27,0,10.73-2.69,13.39-8.08,2.65-5.39,3.98-12.67,3.98-21.83s-1.33-16.45-3.98-21.84c-2.65-5.39-7.12-8.08-13.39-8.08s-10.74,2.7-13.39,8.08c-2.65,5.39-3.98,12.67-3.98,21.84s1.33,16.45,3.98,21.83c2.65,5.39,7.12,8.08,13.39,8.08Z" class="cls-3"/><path d="M462.55,271.86c-14.96,0-26.91-5.67-35.83-17.01-8.92-11.34-13.39-26.74-13.39-46.2,0-13.19,2.37-24.49,7.12-33.9,4.74-9.41,10.9-16.65,18.46-21.71,7.56-5.07,15.44-7.6,23.65-7.6,6.59,0,12.02,1.09,16.29,3.26,4.26,2.17,8.16,5.11,11.7,8.81l-1.45-17.37v-39.09h41.5v167.93h-33.78l-2.9-11.1h-.96c-4.02,4.02-8.77,7.36-14.24,10.02-5.47,2.65-10.86,3.98-16.16,3.98ZM473.65,238.08c3.22,0,6.07-.61,8.56-1.81,2.49-1.21,4.78-3.5,6.88-6.87v-44.4c-2.41-2.25-5.07-3.78-7.96-4.58-2.89-.8-5.71-1.21-8.44-1.21-4.34,0-8.24,2.17-11.7,6.51-3.46,4.35-5.19,11.83-5.19,22.44s1.61,18.46,4.83,23.04c3.22,4.58,7.56,6.88,13.03,6.88Z" class="cls-3"/><path d="M584.19,32.22c-14.21,12.99-18.69,16.8-27.15,28.46.21,65.05,23.73,121.48,60.5,167.9-4.91,9.5-39.25,73.17-45.59,45.05-.7-5.94-3.63-21.69.55-42.73,3.85-19.37,7.26-25.27,5.59-26-1.8-.79-7.28,14.73-9.16,34.18-2.28,23.59-4.26,32.83-5.32,39.44-6.27,43.92-24.53,68.97-29.23,82.98-.37,1.11.33,1.51.8,1.61,1.09.23,2.36-.33,3.46-1.82,15.5-21.08,57.6-80.44,89.72-125.2,28.35,22.13,57.88,36.09,87.12,47.47,25.61,10.21,53.58,17.27,72.3,14.88,1.07-.14,1.98-2.67,1.24-2.92-79.16-26.76-140.62-88.41-140.62-88.24,51.5-72.07,94.01-128.26,110.82-139.89,14.2-11.59,27.97-22.19,30.12-30.91,4.8-15.45,5.94-34.81,3.29-36.2-3.48-1.83-12.74,5.78-20.27,14.63-38.35,59.87-88.42,122.73-133.25,183.69-.01.02-12.4-9.58-28.38-45.1-11.5-25.54-19.84-69.6-23.65-119.86-.14-1.88-2.03-2.6-2.88-1.42" class="cls-2"/></g><g><path d="M98.55,353.46c-3.64,0-7.02-.7-10.13-2.1-3.11-1.4-5.81-3.26-8.07-5.58l3.96-4.59c1.84,1.95,4.02,3.52,6.53,4.71,2.5,1.19,5.11,1.78,7.8,1.78,3.43,0,6.09-.78,7.99-2.33,1.9-1.56,2.85-3.6,2.85-6.13,0-1.79-.38-3.22-1.15-4.27-.76-1.05-1.79-1.95-3.09-2.69-1.29-.74-2.76-1.48-4.39-2.21l-7.44-3.24c-1.64-.69-3.26-1.58-4.87-2.69-1.61-1.11-2.95-2.53-4.04-4.27-1.08-1.74-1.62-3.88-1.62-6.41s.7-5,2.1-7.08c1.4-2.08,3.33-3.72,5.82-4.91,2.48-1.19,5.28-1.78,8.39-1.78s5.99.59,8.63,1.78c2.64,1.19,4.88,2.73,6.73,4.63l-3.56,4.27c-1.58-1.53-3.33-2.73-5.26-3.6-1.92-.87-4.1-1.31-6.53-1.31-2.9,0-5.24.69-7,2.06s-2.65,3.22-2.65,5.54c0,1.64.44,2.99,1.31,4.08.87,1.08,1.97,1.97,3.28,2.65,1.32.69,2.66,1.32,4.03,1.9l7.36,3.17c2.01.85,3.81,1.86,5.42,3.05,1.61,1.19,2.89,2.64,3.84,4.35.95,1.71,1.43,3.87,1.43,6.45,0,2.74-.71,5.24-2.14,7.48-1.42,2.24-3.45,4.02-6.09,5.34-2.64,1.32-5.77,1.98-9.42,1.98Z" class="cls-1"/><path d="M157.43,353.46c-4.33,0-8.16-1.11-11.51-3.32-3.35-2.21-5.96-5.35-7.83-9.42-1.87-4.06-2.81-8.86-2.81-14.4s.94-10.3,2.81-14.28c1.87-3.98,4.48-7.04,7.83-9.18,3.35-2.14,7.19-3.21,11.51-3.21s8.23,1.07,11.55,3.21c3.32,2.14,5.94,5.2,7.84,9.18,1.9,3.98,2.85,8.74,2.85,14.28s-.95,10.34-2.85,14.4c-1.9,4.06-4.51,7.2-7.84,9.42-3.32,2.22-7.17,3.32-11.55,3.32ZM157.43,347.68c3.11,0,5.82-.88,8.11-2.65,2.3-1.77,4.08-4.25,5.34-7.44,1.26-3.19,1.9-6.95,1.9-11.28,0-6.44-1.4-11.53-4.2-15.27-2.8-3.74-6.52-5.62-11.16-5.62s-8.36,1.87-11.16,5.62c-2.8,3.75-4.2,8.84-4.2,15.27,0,4.33.63,8.09,1.9,11.28,1.26,3.19,3.06,5.67,5.38,7.44,2.32,1.77,5.01,2.65,8.07,2.65Z" class="cls-1"/><path d="M202.69,352.51v-51.91h29.91v5.54h-23.34v17.57h19.79v5.54h-19.79v23.27h-6.57Z" class="cls-1"/><path d="M264.41,352.51v-46.37h-15.67v-5.54h37.98v5.54h-15.67v46.37h-6.65Z" class="cls-1"/><path d="M313.64,352.51l-11-51.91h6.8l5.46,28.25c.48,2.8.98,5.59,1.51,8.39.53,2.8,1.03,5.59,1.5,8.39h.32c.58-2.8,1.19-5.61,1.82-8.43.63-2.82,1.24-5.61,1.82-8.35l7.2-28.25h6.02l7.2,28.25c.63,2.74,1.26,5.53,1.9,8.35.63,2.82,1.27,5.63,1.9,8.43h.32c.48-2.8.95-5.61,1.43-8.43.47-2.82.98-5.61,1.5-8.35l5.46-28.25h6.33l-10.76,51.91h-7.91l-7.83-31.26c-.48-2-.91-3.97-1.31-5.9-.4-1.92-.8-3.89-1.23-5.9h-.32c-.37,2.01-.79,3.97-1.26,5.9-.48,1.93-.92,3.89-1.34,5.9l-7.68,31.26h-7.83Z" class="cls-1"/><path d="M375.12,352.51l17.57-51.91h7.44l17.57,51.91h-7.04l-4.91-15.83h-18.91l-4.98,15.83h-6.73ZM390.95,323.47l-2.45,7.91h15.59l-2.45-7.91c-.95-2.9-1.85-5.79-2.69-8.67-.85-2.88-1.69-5.82-2.54-8.82h-.32c-.79,3.01-1.61,5.95-2.45,8.82-.85,2.88-1.74,5.76-2.69,8.67Z" class="cls-1"/><path d="M436.93,352.51v-51.91h16.22c3.53,0,6.67.46,9.42,1.39,2.74.92,4.89,2.45,6.45,4.59,1.56,2.14,2.33,5,2.33,8.58,0,4.01-1.05,7.24-3.16,9.7-2.11,2.45-4.96,4.13-8.55,5.02l13.22,22.63h-7.44l-12.51-21.92h-9.42v21.92h-6.57ZM443.49,325.21h8.71c4.06,0,7.17-.83,9.34-2.49,2.16-1.66,3.25-4.18,3.25-7.56s-1.08-5.83-3.25-7.2c-2.16-1.37-5.28-2.06-9.34-2.06h-8.71v19.31Z" class="cls-1"/><path d="M493.82,352.51v-51.91h29.91v5.54h-23.34v16.3h19.71v5.62h-19.71v18.83h24.14v5.62h-30.7Z" class="cls-1"/></g></g><g><path d="M795.78,300.14v-8.62h-2.91v-1.03h7.06v1.03h-2.91v8.62h-1.24Z" class="cls-3"/><path d="M801.66,300.14v-9.66h1.47l1.85,5.15c.12.33.23.67.35,1.01.11.34.23.67.35,1.01h.06c.12-.33.23-.67.33-1.01.1-.34.21-.67.33-1.01l1.83-5.15h1.49v9.66h-1.15v-5.31c0-.43.02-.91.06-1.44.04-.52.07-1,.1-1.42h-.06l-.77,2.19-1.83,5h-.81l-1.83-5-.77-2.19h-.06c.03.42.06.9.1,1.42.03.53.05,1,.05,1.44v5.31h-1.1Z" class="cls-3"/></g></g></g></svg>