<svg xmlns="http://www.w3.org/2000/svg" xmlns:xlink="http://www.w3.org/1999/xlink" width="500" zoomAndPan="magnify" viewBox="0 0 375 374.999991" height="500" preserveAspectRatio="xMidYMid meet" version="1.0"><path fill="#29beb0" d="M 187.570312 219.394531 L 187.570312 190.933594 L 30.070312 190.933594 L 30.070312 279.535156 L 187.570312 279.535156 L 187.570312 219.394531 M 30.070312 279.535156 L 187.570312 375 L 187.570312 279.535156 L 30.070312 279.535156 M 30.070312 95.464844 L 187.570312 95.464844 L 187.570312 190.933594 L 30.070312 190.933594 L 30.070312 95.464844 " fill-opacity="1" fill-rule="nonzero"/><path fill="#69d2c8" d="M 187.570312 190.933594 L 187.570312 279.535156 L 345.070312 279.535156 L 345.070312 190.933594 L 187.570312 190.933594 M 187.570312 95.464844 L 345.070312 95.464844 L 345.070312 190.933594 L 187.570312 190.933594 L 187.570312 95.464844 M 187.570312 375 L 345.070312 279.535156 L 187.570312 279.535156 L 187.570312 375 " fill-opacity="1" fill-rule="nonzero"/><path fill="#94dfd8" d="M 187.570312 190.933594 L 30.070312 95.464844 L 187.570312 0 L 345.070312 95.464844 L 187.570312 190.933594 " fill-opacity="1" fill-rule="nonzero"/></svg>